<svg xmlns="http://www.w3.org/2000/svg" width="21.01" height="21" viewBox="0 0 21.01 21">
  <path id="Group_191" data-name="Group 191" d="M-453.155-36.777a.6.6,0,0,0-.062,0h-2.768a1.6,1.6,0,0,1-1.776-1.395,1.634,1.634,0,0,1,0-.4v-2.7a.92.92,0,0,0-.92-.92.92.92,0,0,0-.92.92v2.79c0,2.368,1.2,3.545,3.591,3.545h2.79a.92.92,0,0,0,.956-.885.921.921,0,0,0-.885-.956Zm.726-13.026h1.464v8.749h-1.464Zm-1.726,0h.755v8.749h-.755Zm-4.718,1.151a.806.806,0,0,0,.189,0,.835.835,0,0,0,.926-.733.821.821,0,0,0,0-.2v-2.7a1.6,1.6,0,0,1,1.378-1.79,1.591,1.591,0,0,1,.4,0h2.768a.842.842,0,0,0,.937-.736.812.812,0,0,0,0-.191.839.839,0,0,0-.753-.917h0a.888.888,0,0,0-.184,0h-2.79q-3.587,0-3.591,3.533v2.8a.838.838,0,0,0,.721.941Zm8.561-1.151h.9v8.749h-.9Zm8.117-6.118h-2.8a.834.834,0,0,0-.924.73h0a.874.874,0,0,0,0,.183.837.837,0,0,0,.737.926h0a.8.8,0,0,0,.188,0h2.768a1.609,1.609,0,0,1,1.785,1.413,1.593,1.593,0,0,1,0,.383v2.7a.922.922,0,0,0,.89.953.922.922,0,0,0,.953-.89v-2.865Q-438.6-55.922-442.194-55.922Zm2.859,13.713a.842.842,0,0,0-.194,0,.835.835,0,0,0-.919.742v0a.88.88,0,0,0,0,.2v2.7a1.607,1.607,0,0,1-1.4,1.795,1.636,1.636,0,0,1-.389,0H-445a.921.921,0,0,0-.952.889.921.921,0,0,0,.889.952.616.616,0,0,0,.063,0h2.806c2.389,0,3.591-1.189,3.591-3.545v-2.79a.841.841,0,0,0-.727-.942Zm-5.717-7.595h.72v8.749h-.72Zm-3.545,0h1.429v8.749H-448.6Zm2.013,0h1.108v8.749h-1.108Z" transform="translate(459.605 55.93)" fill="#e3a383"/>
</svg>
