<svg xmlns="http://www.w3.org/2000/svg" width="44" height="44" viewBox="0 0 44 44">
  <g id="Group_7991" data-name="Group 7991" transform="translate(-326.438 -50.378)">
    <circle id="Ellipse_1" data-name="Ellipse 1" cx="22" cy="22" r="22" transform="translate(326.438 50.378)" fill="#15cd86"/>
    <path id="Component_86_1" data-name="Component 86 1" d="M-281.274-53.479-291.921-42.83l-5.1-5.09a1.512,1.512,0,0,0-2.136-.106,1.512,1.512,0,0,0-.106,2.136h0c.032.035.065.068.1.1l6.165,6.163a1.511,1.511,0,0,0,2.137,0h0l11.716-11.722a1.509,1.509,0,0,0,0-2.136,1.511,1.511,0,0,0-2.136,0Z" transform="translate(637.582 118.963)" fill="#fff"/>
  </g>
</svg>
