<svg xmlns="http://www.w3.org/2000/svg" width="48.53" height="25.853" viewBox="0 0 48.53 25.853">
  <g id="Group_1" data-name="Group 1" transform="translate(-2856.91 -3987.11)">
    <path id="Path_16669" data-name="Path 16669" d="M3059.8,4067.376a1.717,1.717,0,0,0-1.423.6,3.556,3.556,0,0,0,0,3.528,1.972,1.972,0,0,0,2.846,0,3.556,3.556,0,0,0,0-3.528A1.711,1.711,0,0,0,3059.8,4067.376Zm.916,3.672a1.222,1.222,0,0,1-1.832,0,2.858,2.858,0,0,1,0-2.6,1.222,1.222,0,0,1,1.831,0,2.857,2.857,0,0,1,0,2.605Z" transform="translate(-175.14 -69.79)" stroke="rgba(0,0,0,0)" stroke-width="1"/>
    <path id="Path_16670" data-name="Path 16670" d="M3111.909,4069.542a1.343,1.343,0,0,0,.24-.825,1.236,1.236,0,0,0-.416-1.009,1.868,1.868,0,0,0-1.2-.332h-1.739v4.739h.662v-2.058h1.173l.975,2,.028.056h.732l-.07-.144-.986-2.021A1.188,1.188,0,0,0,3111.909,4069.542Zm-.644-.314a1.231,1.231,0,0,1-.731.176h-1.077v-1.373h1.077a1.227,1.227,0,0,1,.731.177.694.694,0,0,1,0,1.02Z" transform="translate(-219.586 -69.79)" stroke="rgba(0,0,0,0)" stroke-width="1"/>
    <path id="Path_16671" data-name="Path 16671" d="M3051.588,3993.925a10.175,10.175,0,0,1,2.186-4.187,4.412,4.412,0,0,1,3.329-1.519,4.649,4.649,0,0,1,3.3,1.436,9.839,9.839,0,0,1,2.356,4.068,15.547,15.547,0,0,1,.566,2.312h5.549a11.331,11.331,0,0,0-1.078-2.8,10.26,10.26,0,0,0-4.218-4.172,13.267,13.267,0,0,0-6.336-1.451,12.186,12.186,0,0,0-6.267,1.587,11.312,11.312,0,0,0-4.27,4.423,11.9,11.9,0,0,0-.993,2.414h5.409A17.834,17.834,0,0,1,3051.588,3993.925Z" transform="translate(-164.481 0)" stroke="rgba(0,0,0,0)" stroke-width="1"/>
    <path id="Path_16672" data-name="Path 16672" d="M2859.783,3993.129a6.564,6.564,0,0,1,.189,1.84v4.372h5.429v-4.372a4.61,4.61,0,0,1,.393-2.33q.393-.574,1.726-.574a2.787,2.787,0,0,1,2.562,1.267,7.257,7.257,0,0,1,.786,3.765,10.73,10.73,0,0,1-.228,2.245h4.906c.048-.073.093-.145.137-.218a4.7,4.7,0,0,0,.717-2.4,4.5,4.5,0,0,0-2.1-3.816q-2.1-1.487-6.336-1.486c-.433,0-9.719-.034-10.552-.034v.676a5.153,5.153,0,0,1,1.622.254A1.22,1.22,0,0,1,2859.783,3993.129Z" transform="translate(0 -3.307)" stroke="rgba(0,0,0,0)" stroke-width="1"/>
    <path id="Path_16673" data-name="Path 16673" d="M3153.337,4072.088H3154v-1.955l1.58-2.605.092-.151h-.771l-.03.049-1.2,1.984-1.2-1.984-.029-.049h-.771l.092.151,1.58,2.605v1.955Z" transform="translate(-257.033 -69.79)" stroke="rgba(0,0,0,0)" stroke-width="1"/>
    <path id="Path_16674" data-name="Path 16674" d="M2972.457,4067.376h-.662v4.739h2.831v-.654h-2.169v-4.085Z" transform="translate(-99.916 -69.79)" stroke="rgba(0,0,0,0)" stroke-width="1"/>
    <path id="Path_16675" data-name="Path 16675" d="M3061.95,4121.064a10.168,10.168,0,0,1-2.186,4.2,4.416,4.416,0,0,1-3.33,1.52,4.643,4.643,0,0,1-3.295-1.435,9.847,9.847,0,0,1-2.357-4.086,15.938,15.938,0,0,1-.562-2.3h-5.549a11.452,11.452,0,0,0,1.073,2.785,10.219,10.219,0,0,0,4.218,4.187,13.228,13.228,0,0,0,6.335,1.453,12.272,12.272,0,0,0,6.284-1.587,11.149,11.149,0,0,0,4.269-4.424,11.987,11.987,0,0,0,.982-2.414h-5.419A18.171,18.171,0,0,1,3061.95,4121.064Z" transform="translate(-163.573 -114.931)" stroke="rgba(0,0,0,0)" stroke-width="1"/>
    <path id="Path_16676" data-name="Path 16676" d="M3200.927,4071.958l-1.548-2.215,1.542-2.208.11-.158h-.806l-.03.043-1.221,1.745-1.22-1.745-.03-.043h-.806l.11.158,1.545,2.208-1.551,2.215-.11.157h.806l.03-.043,1.226-1.753,1.227,1.753.03.043h.806Z" transform="translate(-296.556 -69.79)" stroke="rgba(0,0,0,0)" stroke-width="1"/>
    <path id="Path_16677" data-name="Path 16677" d="M3011.914,4067.444l-.023-.068h-.652l-.024.068-1.585,4.538-.046.133h.7l.024-.067.448-1.286h1.618l.448,1.286.024.067h.7l-.046-.133Zm-.93,2.665.581-1.665.58,1.665Z" transform="translate(-132.924 -69.79)" stroke="rgba(0,0,0,0)" stroke-width="1"/>
    <path id="Path_16678" data-name="Path 16678" d="M2881.013,4068.675a1.175,1.175,0,0,0-.411-.973,1.89,1.89,0,0,0-1.191-.321h-1.631v4.737h1.784a1.778,1.778,0,0,0,1.193-.351,1.318,1.318,0,0,0,.408-1.049,1.569,1.569,0,0,0-.156-.727,1.072,1.072,0,0,0-.345-.4,1.022,1.022,0,0,0,.235-.331A1.44,1.44,0,0,0,2881.013,4068.675Zm-2.571-.642h.969a1.271,1.271,0,0,1,.722.167.628.628,0,0,1,0,.952,1.268,1.268,0,0,1-.721.166h-.969Zm1.838,3.243a1.122,1.122,0,0,1-.716.189h-1.122v-1.5h1.122a1.134,1.134,0,0,1,.716.189.807.807,0,0,1,0,1.116Z" transform="translate(-17.794 -69.793)" stroke="rgba(0,0,0,0)" stroke-width="1"/>
    <path id="Path_16679" data-name="Path 16679" d="M2927.254,4068.031h.1v-.654h-3.324v4.739h3.385v-.654h-2.723v-1.534h2.57v-.654h-2.57v-1.243Z" transform="translate(-58.194 -69.79)" stroke="rgba(0,0,0,0)" stroke-width="1"/>
    <path id="Path_16680" data-name="Path 16680" d="M2872.418,4118.97a8.569,8.569,0,0,1,.088,1.266,7.215,7.215,0,0,1-1.145,4.373,4.194,4.194,0,0,1-3.6,1.536,2.528,2.528,0,0,1-1.913-.523,3.88,3.88,0,0,1-.444-2.279v-4.373h-5.429v4.373a6.591,6.591,0,0,1-.189,1.823,1.177,1.177,0,0,1-.733.81,6.1,6.1,0,0,1-1.64.271v.675h11.338a12.264,12.264,0,0,0,6.917-1.688,5.506,5.506,0,0,0,2.51-4.863,4.539,4.539,0,0,0-.219-1.4Z" transform="translate(0 -114.931)" stroke="rgba(0,0,0,0)" stroke-width="1"/>
  </g>
</svg>
