<svg xmlns="http://www.w3.org/2000/svg" width="108.919" height="108.919" viewBox="0 0 108.919 108.919">
  <g id="Group_226" data-name="Group 226" transform="translate(-98 -69)">
    <circle id="Ellipse_2" data-name="Ellipse 2" cx="51.959" cy="51.959" r="51.959" transform="translate(100.5 71.5)" stroke="#fff" stroke-width="5"/>
    <g id="Group_1" data-name="Group 1" transform="translate(125.97 109.196)">
      <path id="Path_16669" data-name="Path 16669" d="M3060.034,4067.377a1.926,1.926,0,0,0-1.6.678,3.993,3.993,0,0,0,0,3.958,2.211,2.211,0,0,0,3.194,0,3.99,3.99,0,0,0,0-3.958A1.918,1.918,0,0,0,3060.034,4067.377Zm1.028,4.12a1.373,1.373,0,0,1-2.056,0,3.206,3.206,0,0,1,0-2.923,1.373,1.373,0,0,1,2.056,0,3.2,3.2,0,0,1,0,2.924Z" transform="translate(-3029.452 -4056.182)" fill="#fff" stroke="rgba(0,0,0,0)" stroke-width="1"/>
      <path id="Path_16670" data-name="Path 16670" d="M3112.289,4069.807a1.507,1.507,0,0,0,.27-.926,1.386,1.386,0,0,0-.467-1.132,2.1,2.1,0,0,0-1.346-.371h-1.951v5.317h.742v-2.31h1.316l1.095,2.247.032.063h.822l-.079-.162-1.106-2.268A1.326,1.326,0,0,0,3112.289,4069.807Zm-.724-.353a1.373,1.373,0,0,1-.819.2h-1.209v-1.54h1.209a1.373,1.373,0,0,1,.819.2.776.776,0,0,1,0,1.145Z" transform="translate(-3073.112 -4056.182)" fill="#fff" stroke="rgba(0,0,0,0)" stroke-width="1"/>
      <path id="Path_16671" data-name="Path 16671" d="M3052.305,3994.7a11.4,11.4,0,0,1,2.453-4.7,4.954,4.954,0,0,1,3.736-1.7,5.215,5.215,0,0,1,3.7,1.61,11.043,11.043,0,0,1,2.645,4.565,17.538,17.538,0,0,1,.635,2.595h6.226a12.7,12.7,0,0,0-1.209-3.142,11.513,11.513,0,0,0-4.732-4.683,14.894,14.894,0,0,0-7.111-1.627,13.682,13.682,0,0,0-7.032,1.781,12.69,12.69,0,0,0-4.789,4.963,13.257,13.257,0,0,0-1.116,2.708h6.07A20.092,20.092,0,0,1,3052.305,3994.7Z" transform="translate(-3018.982 -3987.61)" fill="#fff" stroke="rgba(0,0,0,0)" stroke-width="1"/>
      <path id="Path_16672" data-name="Path 16672" d="M2860.073,3993.342a7.344,7.344,0,0,1,.212,2.063v4.907h6.091v-4.907a5.167,5.167,0,0,1,.442-2.614q.441-.644,1.937-.644a3.126,3.126,0,0,1,2.874,1.422,8.142,8.142,0,0,1,.882,4.224,12.041,12.041,0,0,1-.256,2.519h5.5c.054-.083.1-.164.153-.245a5.277,5.277,0,0,0,.8-2.691,5.046,5.046,0,0,0-2.356-4.281q-2.356-1.668-7.109-1.669c-.486,0-10.907-.037-11.842-.037v.759a5.757,5.757,0,0,1,1.819.285A1.367,1.367,0,0,1,2860.073,3993.342Z" transform="translate(-2857.411 -3990.859)" fill="#fff" stroke="rgba(0,0,0,0)" stroke-width="1"/>
      <path id="Path_16673" data-name="Path 16673" d="M3153.54,4072.663h.742v-2.193l1.773-2.924.1-.169h-.866l-.033.054-1.349,2.226-1.347-2.226-.033-.054h-.866l.1.169,1.773,2.924v2.193Z" transform="translate(-3109.897 -4056.182)" fill="#fff" stroke="rgba(0,0,0,0)" stroke-width="1"/>
      <path id="Path_16674" data-name="Path 16674" d="M2972.537,4067.377h-.742v5.317h3.176v-.734h-2.434v-4.583Z" transform="translate(-2955.559 -4056.182)" fill="#fff" stroke="rgba(0,0,0,0)" stroke-width="1"/>
      <path id="Path_16675" data-name="Path 16675" d="M3064.061,4121.32a11.424,11.424,0,0,1-2.454,4.719,4.959,4.959,0,0,1-3.737,1.7,5.207,5.207,0,0,1-3.7-1.61,11.052,11.052,0,0,1-2.645-4.585,17.65,17.65,0,0,1-.63-2.578h-6.228a12.835,12.835,0,0,0,1.2,3.126,11.46,11.46,0,0,0,4.734,4.7,14.837,14.837,0,0,0,7.109,1.63,13.751,13.751,0,0,0,7.052-1.781,12.5,12.5,0,0,0,4.791-4.964,13.373,13.373,0,0,0,1.1-2.709h-6.081A20.346,20.346,0,0,1,3064.061,4121.32Z" transform="translate(-3018.09 -4100.534)" fill="#fff" stroke="rgba(0,0,0,0)" stroke-width="1"/>
      <path id="Path_16676" data-name="Path 16676" d="M3201.418,4072.518l-1.738-2.486,1.731-2.479.122-.175h-.9l-.033.048-1.37,1.959-1.369-1.959-.035-.048h-.9l.122.175,1.734,2.479-1.741,2.486-.123.177h.9l.034-.049,1.376-1.968,1.376,1.968.035.049h.9Z" transform="translate(-3148.721 -4056.182)" fill="#fff" stroke="rgba(0,0,0,0)" stroke-width="1"/>
      <path id="Path_16677" data-name="Path 16677" d="M3012.2,4067.452l-.026-.075h-.731l-.027.075-1.779,5.093-.052.149h.787l.026-.076.5-1.443h1.816l.5,1.443.027.076h.786l-.052-.149Zm-1.043,2.99.651-1.869.651,1.869Z" transform="translate(-2987.982 -4056.182)" fill="#fff" stroke="rgba(0,0,0,0)" stroke-width="1"/>
      <path id="Path_16678" data-name="Path 16678" d="M2881.407,4068.833a1.317,1.317,0,0,0-.461-1.092,2.122,2.122,0,0,0-1.336-.361h-1.83v5.315h2a1.992,1.992,0,0,0,1.338-.394,1.479,1.479,0,0,0,.458-1.177,1.761,1.761,0,0,0-.174-.815,1.2,1.2,0,0,0-.387-.446,1.151,1.151,0,0,0,.264-.371A1.614,1.614,0,0,0,2881.407,4068.833Zm-2.884-.72h1.087a1.422,1.422,0,0,1,.81.187.7.7,0,0,1,0,1.067,1.414,1.414,0,0,1-.809.187h-1.087Zm2.062,3.638a1.255,1.255,0,0,1-.8.213h-1.259v-1.677h1.259a1.261,1.261,0,0,1,.8.213.9.9,0,0,1,0,1.251Z" transform="translate(-2874.889 -4056.185)" fill="#fff" stroke="rgba(0,0,0,0)" stroke-width="1"/>
      <path id="Path_16679" data-name="Path 16679" d="M2927.648,4068.111h.113v-.734h-3.73v5.317h3.8v-.734h-3.055v-1.72h2.883v-.734h-2.883v-1.395Z" transform="translate(-2914.575 -4056.182)" fill="#fff" stroke="rgba(0,0,0,0)" stroke-width="1"/>
      <path id="Path_16680" data-name="Path 16680" d="M2874.252,4118.97a9.751,9.751,0,0,1,.1,1.421,8.1,8.1,0,0,1-1.285,4.907,4.7,4.7,0,0,1-4.044,1.725,2.839,2.839,0,0,1-2.146-.587,4.351,4.351,0,0,1-.5-2.559v-4.907h-6.091v4.907a7.355,7.355,0,0,1-.212,2.045,1.32,1.32,0,0,1-.823.91,6.843,6.843,0,0,1-1.839.3v.759h12.722A13.76,13.76,0,0,0,2877.9,4126a6.179,6.179,0,0,0,2.815-5.458,5.1,5.1,0,0,0-.246-1.572Z" transform="translate(-2857.411 -4100.534)" fill="#fff" stroke="rgba(0,0,0,0)" stroke-width="1"/>
    </g>
  </g>
</svg>
